<?xml version="1.0" encoding="UTF-8" standalone="no"?>
<!-- Created with Inkscape (http://www.inkscape.org/) -->

<svg
   xmlns:dc="http://purl.org/dc/elements/1.1/"
   xmlns:cc="http://creativecommons.org/ns#"
   xmlns:rdf="http://www.w3.org/1999/02/22-rdf-syntax-ns#"
   xmlns:svg="http://www.w3.org/2000/svg"
   xmlns="http://www.w3.org/2000/svg"
   xmlns:sodipodi="http://sodipodi.sourceforge.net/DTD/sodipodi-0.dtd"
   xmlns:inkscape="http://www.inkscape.org/namespaces/inkscape"
   width="145.0663mm"
   height="128.45453mm"
   viewBox="0 0 145.0663 128.45453"
   version="1.1"
   id="svg8"
   inkscape:version="0.92.4 (5da689c313, 2019-01-14)"
   sodipodi:docname="failure.svg">
  <defs
     id="defs2" />
  <sodipodi:namedview
     id="base"
     pagecolor="#ffffff"
     bordercolor="#666666"
     borderopacity="1.0"
     inkscape:pageopacity="0.0"
     inkscape:pageshadow="2"
     inkscape:zoom="1"
     inkscape:cx="314.81565"
     inkscape:cy="458.48055"
     inkscape:document-units="mm"
     inkscape:current-layer="svg8"
     showgrid="false"
     inkscape:window-width="1920"
     inkscape:window-height="1137"
     inkscape:window-x="-8"
     inkscape:window-y="0"
     inkscape:window-maximized="1"
     fit-margin-top="0"
     fit-margin-left="0"
     fit-margin-right="0"
     fit-margin-bottom="0" />
  <metadata
     id="metadata5">
    <rdf:RDF>
      <cc:Work
         rdf:about="">
        <dc:format>image/svg+xml</dc:format>
        <dc:type
           rdf:resource="http://purl.org/dc/dcmitype/StillImage" />
        <dc:title></dc:title>
      </cc:Work>
    </rdf:RDF>
  </metadata>
  <path
     style="display:none;opacity:1;fill:#000000;fill-opacity:1;stroke:#ffffe4;stroke-width:1;stroke-miterlimit:4;stroke-dasharray:none;stroke-opacity:1"
     d="M 7.5462919,163.34663 C 7.4375267,85.09926 7.4708533,44.740888 7.6445004,44.416425 7.8998162,43.939362 10.667285,43.925302 104.30719,43.925302 h 96.39985 l 0.16205,7.871354 c 0.0891,4.329245 0.23711,56.954874 0.32884,116.945834 l 0.16679,109.07448 h -0.76039 c -0.41822,0 -5.99915,0.12081 -12.40207,0.26718 -9.44141,0.21579 -179.1162418,3.70025 -180.1829201,3.70025 -0.2341274,0 -0.3480708,-28.52852 -0.473048,-118.43909 z"
     id="path4600"
     inkscape:connector-curvature="0" />
  <path
     style="display:inline;opacity:1;fill:#000000;stroke:none;stroke-width:2;stroke-miterlimit:4;stroke-dasharray:none;stroke-opacity:1"
     d="m 72.368659,128.03871 c -0.0971,-4.23756 -2.82882,-17.48599 -5.27427,-25.579 C 60.508567,80.664504 49.779867,59.638304 35.250752,40.052244 28.476725,30.920464 21.443257,22.906734 8.8333391,9.9529945 3.2045941,4.1707665 -0.72038597,-0.30094353 0.11115906,0.01584647 14.304986,5.4232465 18.893102,7.0219545 26.540693,9.2250745 c 15.708185,4.5252295 25.669024,5.8234295 44.629986,5.8166595 26.30451,-0.009 44.662351,-3.39056 67.488431,-12.4301175 3.02519,-1.19803 5.89272,-2.17823003 6.37232,-2.17823003 0.47959,0 -4.04574,5.01763003 -10.05627,11.15029753 -16.32189,16.6535 -24.21488,26.3186 -33.66525,41.22364 -12.945441,20.41744 -21.576571,42.20309 -26.720451,67.444506 -1.25434,6.15512 -2.18355,9.41326 -2.2208,7.78688 z"
     id="path3733"
     inkscape:connector-curvature="0"
     inkscape:export-xdpi="999"
     inkscape:export-ydpi="999" />
</svg>
